<?xml version="1.0" encoding="UTF-8"?>
<svg version="1.1" xmlns="http://www.w3.org/2000/svg" width="256" height="256">
<path d="M0 0 C8.31216241 4.90984635 14.23468205 11.64899596 17.15625 20.875 C17.66469646 23.53456611 17.65721273 26.04413072 17.625 28.75 C17.61597656 29.73484375 17.60695313 30.7196875 17.59765625 31.734375 C17.58605469 32.48203125 17.57445312 33.2296875 17.5625 34 C18.29339844 34.25523438 19.02429688 34.51046875 19.77734375 34.7734375 C26.5761878 37.76759883 32.02979682 43.3808574 34.98828125 50.16796875 C35.72378189 52.51456604 35.86708121 54.56335035 35.5625 57 C33.42718142 55.07821328 32.19132503 53.38137505 30.6875 50.875 C28.8748492 47.8794776 28.8748492 47.8794776 26.25 47.125 C24.1268868 47.02625055 22.00040846 47 19.875 47 C16.5625 47 16.5625 47 14.5625 46 C14.5625 45.34 14.5625 44.68 14.5625 44 C13.9025 44 13.2425 44 12.5625 44 C12.335625 44.556875 12.10875 45.11375 11.875 45.6875 C8.95924934 50.82477497 4.45011078 53.93103509 -0.4375 57 C-0.11313965 57.53375244 0.2112207 58.06750488 0.54541016 58.61743164 C1.81223604 61.58501536 1.81811549 63.89747752 1.8359375 67.12109375 C1.8565625 68.30380859 1.8771875 69.48652344 1.8984375 70.70507812 C1.92443756 73.18938395 1.94269174 75.67378315 1.953125 78.15820312 C1.97632813 79.34220703 1.99953125 80.52621094 2.0234375 81.74609375 C2.03165527 82.82560303 2.03987305 83.9051123 2.04833984 85.01733398 C2.67581545 88.65734797 4.18068608 90.24221766 6.5625 93 C7 96.1875 7 96.1875 6.5625 99 C3.5625 101 3.5625 101 0.5625 101 C0.8925 102.32 1.2225 103.64 1.5625 105 C-2.6413932 106.51340155 -4.39533601 105.72030914 -9.4375 105 C-8.4475 116.385 -8.4475 116.385 -7.4375 128 C-5.4575 127.01 -3.4775 126.02 -1.4375 125 C1.52734375 124.84765625 1.52734375 124.84765625 4.5 125.0625 C9.00442893 125.14601846 12.26941254 125.0896402 16.05078125 122.53515625 C18.66859593 119.87675529 20.29997424 116.64412505 22.109375 113.40625 C24.23525632 109.88597341 26.08945062 108.24726724 29.5625 106 C31.10287797 105.70160217 32.64464964 105.41033894 34.1875 105.125 C36.59516098 104.60408982 36.59516098 104.60408982 38.5625 103 C40.0836304 99.14035016 40.94171228 95.43072726 41.7109375 91.37109375 C42.5625 88 42.5625 88 45.5625 86 C49.99710929 86 52.02996913 86.56944312 55.5 89.375 C58.12562618 93.05087665 58.33471276 96.59397175 58.08984375 101.01953125 C55.88411101 113.48600592 45.43050509 125.97075356 35.4375 133.5 C29.01800969 137.34693019 21.42081688 139.27323443 14.29907227 141.4309082 C12.48077284 141.97984765 12.48077284 141.97984765 10.5625 143 C9.77153907 146.3220359 9.57011915 149.14476383 9.75 152.5625 C9.52477675 156.69159298 8.49161631 158.15703417 5.5625 161 C4.9025 161 4.2425 161 3.5625 161 C3.58692673 161.62766266 3.61135345 162.25532532 3.63652039 162.90200806 C3.88371391 169.55488667 4.04731041 176.20642462 4.16674805 182.86279297 C4.22138971 185.33208339 4.29593498 187.80102998 4.39233398 190.26904297 C5.09104424 208.64474917 2.37647004 221.37882269 -7.4375 237 C-8.04891846 238.02174316 -8.66033691 239.04348633 -9.2902832 240.09619141 C-9.66886475 240.72444824 -10.04744629 241.35270508 -10.4375 242 C-12.26953125 241.78515625 -12.26953125 241.78515625 -14.4375 241 C-16.13812371 238.6191268 -17.28791463 236.10290923 -18.56860352 233.47265625 C-20.36031766 229.95934699 -20.36031766 229.95934699 -22.72753906 226.83813477 C-31.65832933 214.23685638 -30.2700758 201.3510361 -29.5 186.5 C-29.40644935 184.01969179 -29.31722251 181.53921654 -29.23242188 179.05859375 C-29.01724572 173.03622995 -28.74885017 167.0181186 -28.4375 161 C-29.05625 160.71125 -29.675 160.4225 -30.3125 160.125 C-32.4375 159 -32.4375 159 -34.4375 157 C-34.6903288 154.48935124 -34.80774359 152.13638685 -34.8125 149.625 C-34.84923828 148.61566406 -34.84923828 148.61566406 -34.88671875 147.5859375 C-34.90702377 144.14762053 -34.68228833 142.32192751 -32.578125 139.5546875 C-30.4375 138 -30.4375 138 -27.8125 137.5 C-27.02875 137.335 -26.245 137.17 -25.4375 137 C-24.2874169 135.03327085 -24.2874169 135.03327085 -23.4375 133 C-22.4475 132.67 -21.4575 132.34 -20.4375 132 C-19.7775 132.33 -19.1175 132.66 -18.4375 133 C-18.37691406 131.81664062 -18.31632812 130.63328125 -18.25390625 129.4140625 C-17.82496861 121.2513016 -17.3549035 113.12557387 -16.4375 105 C-17.0975 105 -17.7575 105 -18.4375 105 C-18.4375 104.01 -18.4375 103.02 -18.4375 102 C-19.4275 102.495 -19.4275 102.495 -20.4375 103 C-20.4375 103.66 -20.4375 104.32 -20.4375 105 C-23.49013664 105.98120464 -25.38486336 105.98120464 -28.4375 105 C-27.9425 103.02 -27.9425 103.02 -27.4375 101 C-28.7575 100.67 -30.0775 100.34 -31.4375 100 C-31.51881463 98.56344146 -31.57683559 97.1255517 -31.625 95.6875 C-31.67720703 94.48673828 -31.67720703 94.48673828 -31.73046875 93.26171875 C-31.4375 91 -31.4375 91 -29.94677734 89.75317383 C-27.71503675 87.160788 -28.03600705 85.06411711 -27.99609375 81.6875 C-27.96966797 80.44742188 -27.94324219 79.20734375 -27.91601562 77.9296875 C-27.89571289 75.98449219 -27.89571289 75.98449219 -27.875 74 C-27.84061084 71.4373705 -27.79803295 68.87483387 -27.74609375 66.3125 C-27.73376709 65.17425781 -27.72144043 64.03601563 -27.70874023 62.86328125 C-27.4375 60 -27.4375 60 -25.4375 57 C-26.05238281 56.60167969 -26.66726562 56.20335937 -27.30078125 55.79296875 C-28.10902344 55.26316406 -28.91726562 54.73335937 -29.75 54.1875 C-30.55050781 53.66542969 -31.35101563 53.14335938 -32.17578125 52.60546875 C-34.17750268 51.18455769 -35.85376519 49.87075471 -37.4375 48 C-37.4375 47.34 -37.4375 46.68 -37.4375 46 C-38.0975 46 -38.7575 46 -39.4375 46 C-40.7575 43.36 -42.0775 40.72 -43.4375 38 C-45.72927305 41.2739615 -47.6894208 44.43678474 -49.375 48.0625 C-51.76504348 52.83349934 -53.99348314 56.10626669 -59.21484375 58.015625 C-61.32718163 58.67360911 -63.44047217 59.3285424 -65.5546875 59.98046875 C-70.83152279 61.8466666 -73.48025427 64.34077407 -76.3125 69.25 C-78.10316178 75.21887259 -78.10411498 79.85981507 -76.25 85.8125 C-73.25838451 91.07361689 -69.88671855 92.90068367 -64.375 95 C-57.68627939 97.5779444 -57.68627939 97.5779444 -55.4375 101 C-54.22165263 105.95691619 -54.65439191 110.0076859 -55.4375 115 C-54.9425 115.99 -54.9425 115.99 -54.4375 117 C-49.57446443 117.52859082 -46.82910389 116.89098246 -42.5 114.5625 C-37.90198391 112.12045807 -34.67786679 110.91266055 -29.4375 111 C-26.2151246 112.6111877 -24.1869469 114.02246056 -22 116.875 C-21.17611251 119.98746386 -21.49500962 121.92119808 -22.4375 125 C-26.23522628 130.02279927 -31.55449278 132.97483962 -37.4375 135 C-47.99808988 136.45560873 -58.56234808 133.79463283 -67.4375 128 C-77.49421864 119.74645394 -83.29049858 109.83246232 -85.4375 97 C-87.06886092 79.1545031 -81.8121179 62.54682067 -70.375 48.75 C-64.01876212 42.05461689 -55.24624358 35.91599787 -46.4375 33 C-45.4475 33 -44.4575 33 -43.4375 33 C-43.705625 31.7625 -43.97375 30.525 -44.25 29.25 C-45.10691887 21.48876342 -41.37613437 14.05362822 -36.625 8.0625 C-27.31610118 -1.77422298 -12.61094198 -5.81591579 0 0 Z M-7.4375 102 C-7.1075 102.66 -6.7775 103.32 -6.4375 104 C-6.1075 103.34 -5.7775 102.68 -5.4375 102 C-6.0975 102 -6.7575 102 -7.4375 102 Z " fill="#D6D8D9" transform="translate(142.4375,8)"/>
<path d="M0 0 C3.61126735 0.99621168 5.53324827 1.93404758 7.734375 5.015625 C10.08716807 10.25781307 9.41850646 15.54643819 7.69140625 20.88671875 C2.68429481 32.01528394 -6.97536515 44.90312518 -18.375 50 C-23.72828185 52.02003617 -29.16371081 53.77223414 -34.63842773 55.4309082 C-36.45672716 55.97984765 -36.45672716 55.97984765 -38.375 57 C-39.16596093 60.3220359 -39.36738085 63.14476383 -39.1875 66.5625 C-39.41272325 70.69159298 -40.44588369 72.15703417 -43.375 75 C-44.035 75 -44.695 75 -45.375 75 C-45.35057327 75.62766266 -45.32614655 76.25532532 -45.30097961 76.90200806 C-45.05378609 83.55488667 -44.89018959 90.20642462 -44.77075195 96.86279297 C-44.71611029 99.33208339 -44.64156502 101.80102998 -44.54516602 104.26904297 C-43.84645576 122.64474917 -46.56102996 135.37882269 -56.375 151 C-56.98641846 152.02174316 -57.59783691 153.04348633 -58.2277832 154.09619141 C-58.60636475 154.72444824 -58.98494629 155.35270508 -59.375 156 C-61.20703125 155.78515625 -61.20703125 155.78515625 -63.375 155 C-65.07844541 152.61517643 -66.2278082 150.09674045 -67.50683594 147.46020508 C-69.28386862 143.96587964 -69.28386862 143.96587964 -71.65844727 140.95019531 C-80.83928139 128.35411618 -79.33602742 114.25488491 -78.70428467 99.37908936 C-78.59779884 96.60348999 -78.53765882 93.82770595 -78.47885513 91.05074787 C-78.40575949 87.71677792 -78.30491961 84.384007 -78.203125 81.05078125 C-78.15118988 79.19614006 -78.15118988 79.19614006 -78.09820557 77.30403137 C-78.04936218 76.15480698 -78.0005188 75.00558258 -77.95019531 73.8215332 C-77.91194641 72.81500198 -77.87369751 71.80847076 -77.83428955 70.7714386 C-77.29978071 67.54611282 -76.29503323 65.63159515 -74.375 63 C-72.40014795 61.6296945 -70.40113283 60.29327628 -68.375 59 C-67.715 58.01 -67.055 57.02 -66.375 56 C-65.715 56.33 -65.055 56.66 -64.375 57 C-65.035 57.99 -65.695 58.98 -66.375 60 C-66.55997893 62.58933315 -66.63079882 65.06794204 -66.60546875 67.65625 C-66.60537308 68.42335297 -66.6052774 69.19045593 -66.60517883 69.98080444 C-66.60144682 72.48735995 -66.58249799 74.99352556 -66.5625 77.5 C-66.55564671 79.21891143 -66.54913802 80.93782426 -66.54296875 82.65673828 C-66.4707083 96.78440397 -66.06569362 110.88854158 -65.375 125 C-64.88 124.505 -64.88 124.505 -64.375 124 C-61.875 123.875 -61.875 123.875 -59.375 124 C-58.88 124.495 -58.88 124.495 -58.375 125 C-58.37357498 124.11130219 -58.37214996 123.22260437 -58.37068176 122.30697632 C-58.35283167 113.92038123 -58.31115874 105.53431257 -58.24290943 97.1479702 C-58.20865896 92.83669491 -58.18353253 88.52577324 -58.17944336 84.21435547 C-58.17515614 80.05134415 -58.14665937 75.88913025 -58.10156822 71.72636795 C-58.08860656 70.14045486 -58.08428085 68.55444627 -58.08884621 66.96848679 C-58.09376223 64.74163105 -58.06762194 62.5170971 -58.03442383 60.29052734 C-58.02776199 59.02477875 -58.02110016 57.75903015 -58.01423645 56.45492554 C-57.1692171 51.88779091 -55.6496306 50.24694378 -52.375 47 C-49.875 46.22265625 -49.875 46.22265625 -47.375 46.0625 C-43.6942029 45.59183585 -43.6942029 45.59183585 -40.828125 43.4375 C-40.02866819 42.19159329 -39.25599625 40.9280725 -38.51171875 39.6484375 C-37.375 38 -37.375 38 -34.4375 36.6875 C-30.31919715 34.41823108 -29.12722156 31.46033906 -26.86328125 27.44140625 C-24.71152861 23.9116283 -22.86581369 22.2587618 -19.375 20 C-17.83462203 19.70160217 -16.29285036 19.41033894 -14.75 19.125 C-12.34233902 18.60408982 -12.34233902 18.60408982 -10.375 17 C-8.8538696 13.14035016 -7.99578772 9.43072726 -7.2265625 5.37109375 C-6.06006723 0.75327074 -4.71348647 0 0 0 Z " fill="#FB705D" transform="translate(191.375,94)"/>
<path d="M0 0 C7.56933465 5.51346598 13.41811619 12.21501402 15.21484375 21.61328125 C15.28172966 23.52889379 15.30016094 25.44663717 15.27734375 27.36328125 C15.26832031 28.348125 15.25929687 29.33296875 15.25 30.34765625 C15.23839844 31.0953125 15.22679687 31.84296875 15.21484375 32.61328125 C15.94574219 32.86851563 16.67664063 33.12375 17.4296875 33.38671875 C24.22853155 36.38088008 29.68214057 41.99413865 32.640625 48.78125 C33.37612564 51.12784729 33.51942496 53.1766316 33.21484375 55.61328125 C31.07952517 53.69149453 29.84366878 51.9946563 28.33984375 49.48828125 C26.52719295 46.49275885 26.52719295 46.49275885 23.90234375 45.73828125 C21.77923055 45.6395318 19.65275221 45.61328125 17.52734375 45.61328125 C14.21484375 45.61328125 14.21484375 45.61328125 12.21484375 44.61328125 C12.21484375 43.95328125 12.21484375 43.29328125 12.21484375 42.61328125 C11.55484375 42.61328125 10.89484375 42.61328125 10.21484375 42.61328125 C9.98796875 43.17015625 9.76109375 43.72703125 9.52734375 44.30078125 C6.36089281 49.87976624 2.19226228 52.54835485 -3.78515625 54.61328125 C-5.10515625 54.61328125 -6.42515625 54.61328125 -7.78515625 54.61328125 C-9.09375 52.86328125 -9.09375 52.86328125 -10.22265625 50.61328125 C-12.02862266 47.3311729 -12.02862266 47.3311729 -15.28515625 45.67578125 C-18.7063214 46.95871818 -19.86711912 49.04780431 -21.76953125 52.08203125 C-22.1046875 52.58734375 -22.43984375 53.09265625 -22.78515625 53.61328125 C-23.11515625 53.61328125 -23.44515625 53.61328125 -23.78515625 53.61328125 C-24.11515625 51.63328125 -24.44515625 49.65328125 -24.78515625 47.61328125 C-26.11546875 47.33484375 -26.11546875 47.33484375 -27.47265625 47.05078125 C-31.74373944 45.19729232 -33.63414859 42.67534352 -35.78515625 38.61328125 C-36.421875 36.38671875 -36.421875 36.38671875 -36.78515625 34.61328125 C-36.14707031 34.41992188 -35.50898437 34.2265625 -34.8515625 34.02734375 C-34.02527344 33.76695313 -33.19898437 33.5065625 -32.34765625 33.23828125 C-31.52394531 32.98304687 -30.70023438 32.7278125 -29.8515625 32.46484375 C-27.60717609 31.80445898 -27.60717609 31.80445898 -26.78515625 29.61328125 C-28.84792732 29.75522889 -30.91036656 29.90200341 -32.97265625 30.05078125 C-34.12121094 30.13199219 -35.26976563 30.21320312 -36.453125 30.296875 C-39.30113796 30.56731937 -41.99726107 30.98849872 -44.78515625 31.61328125 C-45.39692528 23.11648919 -45.79051214 15.99336708 -40.69140625 8.765625 C-30.25086033 -3.02277828 -14.50507461 -8.56788933 0 0 Z " fill="#F1F0F0" transform="translate(144.78515625,9.38671875)"/>
<path d="M0 0 C0.33 0 0.66 0 1 0 C1.495 4.95 1.495 4.95 2 10 C3.32 9.67 4.64 9.34 6 9 C8.24907152 8.93209325 10.50001605 8.91500016 12.75 8.9375 C14.50570312 8.95103516 14.50570312 8.95103516 16.296875 8.96484375 C17.18890625 8.97644531 18.0809375 8.98804688 19 9 C18 12 18 12 16 13 C13.44842345 13.0716735 10.92527029 13.09308442 8.375 13.0625 C7.66859375 13.05798828 6.9621875 13.05347656 6.234375 13.04882812 C4.48954725 13.03703875 2.744763 13.01910324 1 13 C0.60748047 13.79083984 0.60748047 13.79083984 0.20703125 14.59765625 C-1.27912042 17.55553093 -2.78207336 20.50220279 -4.3125 23.4375 C-5.17294922 25.10619141 -5.17294922 25.10619141 -6.05078125 26.80859375 C-9.47413001 32.41355555 -12.57804164 35.29759673 -18.9375 37 C-25.6481422 39.06925208 -29.26356944 40.99018703 -32.875 47.25 C-34.66566178 53.21887259 -34.66661498 57.85981507 -32.8125 63.8125 C-29.82088451 69.07361689 -26.44921855 70.90068367 -20.9375 73 C-14.24877939 75.5779444 -14.24877939 75.5779444 -12 79 C-10.78415263 83.95691619 -11.21689191 88.0076859 -12 93 C-11.505 93.99 -11.505 93.99 -11 95 C-6.13696443 95.52859082 -3.39160389 94.89098246 0.9375 92.5625 C5.53551609 90.12045807 8.75963321 88.91266055 14 89 C17.2223754 90.6111877 19.2505531 92.02246056 21.4375 94.875 C22.26138749 97.98746386 21.94249038 99.92119808 21 103 C17.20227372 108.02279927 11.88300722 110.97483962 6 113 C-4.56058988 114.45560873 -15.12484808 111.79463283 -24 106 C-34.05671864 97.74645394 -39.85299858 87.83246232 -42 75 C-43.63136092 57.1545031 -38.3746179 40.54682067 -26.9375 26.75 C-20.58126212 20.05461689 -11.80874358 13.91599787 -3 11 C-2.01 11 -1.02 11 0 11 C-0.08378906 10.37351562 -0.16757813 9.74703125 -0.25390625 9.1015625 C-0.40666016 7.87566406 -0.40666016 7.87566406 -0.5625 6.625 C-0.71912109 5.40683594 -0.71912109 5.40683594 -0.87890625 4.1640625 C-1 2 -1 2 0 0 Z " fill="#FC735F" transform="translate(99,30)"/>
<path d="M0 0 C0.66 0.33 1.32 0.66 2 1 C1.01 2.485 1.01 2.485 0 4 C-0.18497893 6.58933315 -0.25579882 9.06794204 -0.23046875 11.65625 C-0.23037308 12.42335297 -0.2302774 13.19045593 -0.23017883 13.98080444 C-0.22644682 16.48735995 -0.20749799 18.99352556 -0.1875 21.5 C-0.18064671 23.21891143 -0.17413802 24.93782426 -0.16796875 26.65673828 C-0.0957083 40.78440397 0.30930638 54.88854158 1 69 C1.495 68.505 1.495 68.505 2 68 C4.5 67.875 4.5 67.875 7 68 C7.495 68.495 7.495 68.495 8 69 C8.33 63.39 8.66 57.78 9 52 C9.33 52 9.66 52 10 52 C10.495 60.415 10.495 60.415 11 69 C11.33 68.67 11.66 68.34 12 68 C14.7959658 67.70568781 16.43712819 67.66227692 18.875 69.125 C20.57653373 71.96088954 19.7244792 73.83598697 19 77 C17.78491211 79.79248047 17.78491211 79.79248047 16.27734375 82.6171875 C15.73916016 83.63554687 15.20097656 84.65390625 14.64648438 85.703125 C13.80053711 87.27320313 13.80053711 87.27320313 12.9375 88.875 C12.36966797 89.94492188 11.80183594 91.01484375 11.21679688 92.1171875 C9.81869535 94.74890801 8.41292765 97.37621846 7 100 C3.17333984 99.24267578 3.17333984 99.24267578 1.61328125 97.05859375 C0.68934694 95.19685225 -0.22467989 93.33017939 -1.13183594 91.46020508 C-2.90886862 87.96587964 -2.90886862 87.96587964 -5.28344727 84.95019531 C-14.46428139 72.35411618 -12.96102742 58.25488491 -12.32928467 43.37908936 C-12.22279884 40.60348999 -12.16265882 37.82770595 -12.10385513 35.05074787 C-12.03075949 31.71677792 -11.92991961 28.384007 -11.828125 25.05078125 C-11.77618988 23.19614006 -11.77618988 23.19614006 -11.72320557 21.30403137 C-11.67436218 20.15480698 -11.6255188 19.00558258 -11.57519531 17.8215332 C-11.53694641 16.81500198 -11.49869751 15.80847076 -11.45928955 14.7714386 C-10.92478071 11.54611282 -9.92003323 9.63159515 -8 7 C-6.02514795 5.6296945 -4.02613283 4.29327628 -2 3 C-1.34 2.01 -0.68 1.02 0 0 Z " fill="#F9BB9D" transform="translate(125,150)"/>
<path d="M0 0 C1.60294922 0.16628906 1.60294922 0.16628906 3.23828125 0.3359375 C4.04652344 0.43132812 4.85476562 0.52671875 5.6875 0.625 C4.47605638 3.15801848 3.6979682 4.73189416 1.6875 6.625 C-0.8520861 7.34637745 -3.24664714 7.68177803 -5.875 7.91015625 C-9.37672167 8.93710347 -10.3471803 10.58619987 -12.3125 13.625 C-12.92631673 17.07074821 -12.92631673 17.07074821 -12.85839844 20.89379883 C-12.87390495 21.96291 -12.87390495 21.96291 -12.88972473 23.05361938 C-12.91909407 25.39665555 -12.92065057 27.73882569 -12.921875 30.08203125 C-12.93686072 31.71157981 -12.9535887 33.3411132 -12.97198486 34.97062683 C-13.01562706 39.24987495 -13.03565039 43.5289182 -13.05072021 47.80834961 C-13.07030269 52.17899677 -13.11227139 56.54942304 -13.15234375 60.91992188 C-13.22761189 69.4882234 -13.27792374 78.0564381 -13.3125 86.625 C-14.983125 86.3465625 -14.983125 86.3465625 -16.6875 86.0625 C-20.13818861 85.30819343 -20.13818861 85.30819343 -22.3125 86.625 C-23.02680653 71.31680314 -23.45317396 56.00872845 -23.54467773 40.68438721 C-23.55654255 38.98052608 -23.57361789 37.27669313 -23.59594727 35.57293701 C-23.62582191 33.16302977 -23.63585315 30.75382131 -23.640625 28.34375 C-23.65293152 27.62196564 -23.66523804 26.90018127 -23.67791748 26.15652466 C-23.6640452 23.01247119 -23.47174052 20.9082676 -21.91699219 18.14257812 C-20.3125 16.625 -20.3125 16.625 -18.3125 16.625 C-18.415625 15.903125 -18.51875 15.18125 -18.625 14.4375 C-18.18744611 10.49951498 -16.12657234 9.3050689 -13.3125 6.625 C-12.9825 5.738125 -12.6525 4.85125 -12.3125 3.9375 C-11.3125 1.625 -11.3125 1.625 -9.14453125 0.45703125 C-5.83599293 -0.51499449 -3.41706069 -0.37550118 0 0 Z " fill="#F3F5F5" transform="translate(147.3125,133.375)"/>
<path d="M0 0 C0.66 0.33 1.32 0.66 2 1 C1.01 2.485 1.01 2.485 0 4 C-0.32992609 6.97250877 -0.32992609 6.97250877 -0.31884766 10.39916992 C-0.33391609 11.36543053 -0.33391609 11.36543053 -0.34928894 12.35121155 C-0.38014705 14.47762165 -0.39716293 16.6039057 -0.4140625 18.73046875 C-0.43277209 20.20592841 -0.45234534 21.68137735 -0.4727478 23.15681458 C-0.52409736 27.03817425 -0.56370781 30.91956863 -0.60089111 34.80108643 C-0.64091316 38.76266077 -0.69201368 42.7240904 -0.7421875 46.68554688 C-0.83898018 54.45693201 -0.9233741 62.22838709 -1 70 C-3.64 69.34 -6.28 68.68 -9 68 C-9.33 68.99 -9.66 69.98 -10 71 C-10.33 71 -10.66 71 -11 71 C-11.06959844 63.39377988 -11.12286116 55.7875929 -11.15543652 48.18112659 C-11.17107343 44.64887534 -11.19227501 41.11684241 -11.22631836 37.5847168 C-11.26523603 33.52130063 -11.27972547 29.45811279 -11.29296875 25.39453125 C-11.30845261 24.1297847 -11.32393646 22.86503815 -11.33988953 21.56196594 C-11.34011612 20.38111923 -11.34034271 19.20027252 -11.34057617 17.98364258 C-11.34723801 16.94661697 -11.35389984 15.90959137 -11.36076355 14.84114075 C-10.93836928 11.51463622 -9.98427816 9.6837329 -8 7 C-6.02514795 5.6296945 -4.02613283 4.29327628 -2 3 C-1.34 2.01 -0.68 1.02 0 0 Z " fill="#FD705C" transform="translate(125,150)"/>
<path d="M0 0 C3.61126735 0.99621168 5.53324827 1.93404758 7.734375 5.015625 C10.13923745 10.3738273 9.4487498 15.74523093 7.48046875 21.1328125 C4.60417903 27.18895814 1.24570374 32.15926275 -3.375 37 C-3.705 36.34 -4.035 35.68 -4.375 35 C-4.065625 34.113125 -3.75625 33.22625 -3.4375 32.3125 C-2.26498491 28.65701178 -2.08142131 25.81652302 -2.375 22 C-4.18917709 19.81026503 -4.18917709 19.81026503 -6.6875 19.5625 C-10.65736492 20.20875708 -11.84512665 21.90090514 -14.375 25 C-15.23308273 26.5070078 -16.06522693 28.02899224 -16.875 29.5625 C-18.89817863 33.32072656 -20.5036284 35.92926635 -24.375 38 C-27.13426938 38.30372555 -29.58348373 38.18925534 -32.375 38 C-29.79173897 31.05825116 -25.84958178 23.9148634 -19.375 20 C-18.65828125 19.87753906 -17.9415625 19.75507812 -17.203125 19.62890625 C-14.39279022 19.11000457 -12.70425828 18.69559514 -10.375 17 C-8.85106672 13.13995123 -7.99638399 9.43173995 -7.2265625 5.37109375 C-6.06006723 0.75327074 -4.71348647 0 0 0 Z " fill="#F4EFEE" transform="translate(191.375,94)"/>
<path d="M0 0 C1.98 0 3.96 0 6 0 C7.26742088 6.60781563 8.25364969 13.24365757 8.9375 19.9375 C9.13666016 21.77634766 9.13666016 21.77634766 9.33984375 23.65234375 C8.89772464 28.00747109 7.2205504 29.1832495 4 32 C3.12761142 34.67790896 3.12761142 34.67790896 3 37 C2.401875 37.0825 1.80375 37.165 1.1875 37.25 C-1.63379515 38.21730119 -2.25366439 39.62498356 -4 42 C-4.845625 42.495 -5.69125 42.99 -6.5625 43.5 C-9.32223811 45.19830038 -9.98878794 45.96636381 -11 49 C-11.38749213 51.32495277 -11.72982839 53.65851268 -12 56 C-14.46800047 54.84826645 -16.04783565 53.95216435 -18 52 C-18.2528288 49.48935124 -18.37024359 47.13638685 -18.375 44.625 C-18.39949219 43.95210937 -18.42398438 43.27921875 -18.44921875 42.5859375 C-18.46952377 39.14762053 -18.24478833 37.32192751 -16.140625 34.5546875 C-14 33 -14 33 -11.375 32.5 C-10.199375 32.2525 -10.199375 32.2525 -9 32 C-7.8499169 30.03327085 -7.8499169 30.03327085 -7 28 C-6.01 27.67 -5.02 27.34 -4 27 C-3.34 27.33 -2.68 27.66 -2 28 C-1.93941406 26.81664062 -1.87882812 25.63328125 -1.81640625 24.4140625 C-1.38746861 16.2513016 -0.9174035 8.12557387 0 0 Z " fill="#D7D7D7" transform="translate(126,113)"/>
<path d="M0 0 C4.29 0 8.58 0 13 0 C11.02 0.99 11.02 0.99 9 2 C9.61996078 3.29409289 10.24616353 4.58519673 10.875 5.875 C11.39707031 6.95394531 11.39707031 6.95394531 11.9296875 8.0546875 C12.96557543 10.15135019 12.96557543 10.15135019 15 12 C16.010625 12.28875 17.02125 12.5775 18.0625 12.875 C19.031875 13.24625 20.00125 13.6175 21 14 C21.875 16.125 21.875 16.125 22 18 C22.66 17.67 23.32 17.34 24 17 C23.94802321 21.54259241 23.8529154 26.08329857 23.75 30.625 C23.72873047 32.55279297 23.72873047 32.55279297 23.70703125 34.51953125 C23.39515145 46.55809162 23.39515145 46.55809162 19 51 C17.68442474 51.70105918 16.35314227 52.37451761 15 53 C14.95052302 49.06734104 14.91424422 45.13480286 14.89013672 41.2019043 C14.87514505 39.20680382 14.84973269 37.21179054 14.82421875 35.21679688 C14.81777344 33.96318359 14.81132813 32.70957031 14.8046875 31.41796875 C14.79421387 30.26063232 14.78374023 29.1032959 14.77294922 27.91088867 C15 25 15 25 17 22 C16.38511719 21.60167969 15.77023438 21.20335938 15.13671875 20.79296875 C14.32847656 20.26316406 13.52023438 19.73335937 12.6875 19.1875 C11.88699219 18.66542969 11.08648437 18.14335938 10.26171875 17.60546875 C8.25999732 16.18455769 6.58373481 14.87075471 5 13 C5 12.34 5 11.68 5 11 C4.34 11 3.68 11 3 11 C0 4.5 0 4.5 0 0 Z " fill="#D1D1D1" transform="translate(100,43)"/>
<path d="M0 0 C0.66 0 1.32 0 2 0 C2 7.92 2 15.84 2 24 C4.31 24 6.62 24 9 24 C9 16.41 9 8.82 9 1 C9.66 1 10.32 1 11 1 C11.495 15.355 11.495 15.355 12 30 C12.66 29.67 13.32 29.34 14 29 C15.54023996 28.93049459 17.08334988 28.91547643 18.625 28.9375 C19.85089844 28.95103516 19.85089844 28.95103516 21.1015625 28.96484375 C21.72804687 28.97644531 22.35453125 28.98804687 23 29 C23 26.69 23 24.38 23 22 C25.1387261 25.20808915 25.47730962 26.27698497 25 30 C22 32 22 32 19 32 C19.495 33.98 19.495 33.98 20 36 C16.18243176 37.37432457 12.92744671 36.67975039 9 36 C9 38.31 9 40.62 9 43 C8.67 43 8.34 43 8 43 C8 40.69 8 38.38 8 36 C5.36 36 2.72 36 0 36 C0 35.01 0 34.02 0 33 C-0.99 33.495 -0.99 33.495 -2 34 C-2 34.66 -2 35.32 -2 36 C-5.05263664 36.98120464 -6.94736336 36.98120464 -10 36 C-9.67 34.68 -9.34 33.36 -9 32 C-10.32 31.67 -11.64 31.34 -13 31 C-13.22893297 27.96663814 -13.36475845 25.02534949 -13 22 C-11 19.9375 -11 19.9375 -9 19 C-9.99 21.97 -10.98 24.94 -12 28 C-8.37 28.33 -4.74 28.66 -1 29 C-0.67 19.43 -0.34 9.86 0 0 Z M11 33 C11.33 33.66 11.66 34.32 12 35 C12.33 34.34 12.66 33.68 13 33 C12.34 33 11.68 33 11 33 Z " fill="#D3D7D8" transform="translate(124,77)"/>
<path d="M0 0 C2.80478513 2.80478513 2.96108361 4.88543472 3.09765625 8.796875 C3.08605469 9.77140625 3.07445312 10.7459375 3.0625 11.75 C3.05347656 12.73484375 3.04445312 13.7196875 3.03515625 14.734375 C3.02355469 15.48203125 3.01195312 16.2296875 3 17 C3.73089844 17.25523438 4.46179688 17.51046875 5.21484375 17.7734375 C12.0136878 20.76759883 17.46729682 26.3808574 20.42578125 33.16796875 C21.16128189 35.51456604 21.30458121 37.56335035 21 40 C18.86468142 38.07821328 17.62882503 36.38137505 16.125 33.875 C14.3123492 30.8794776 14.3123492 30.8794776 11.6875 30.125 C9.5643868 30.02625055 7.43790846 30 5.3125 30 C2 30 2 30 0 29 C0 28.34 0 27.68 0 27 C-0.66 27 -1.32 27 -2 27 C-2.33 26.34 -2.66 25.68 -3 25 C-5.50944662 24.16052847 -5.50944662 24.16052847 -8.4375 23.5 C-13.78216123 22.21783877 -13.78216123 22.21783877 -16 20 C-15.75 16.9375 -15.75 16.9375 -15 14 C-10.7617491 11.88087455 -5.88187654 12.74803527 -1.5 14 C-0.2625 14.495 -0.2625 14.495 1 15 C1.09038099 9.84828377 0.84681133 5.08086796 0 0 Z " fill="#F3725F" transform="translate(157,25)"/>
<path d="M0 0 C0.66 0.33 1.32 0.66 2 1 C0.515 2.485 0.515 2.485 -1 4 C-0.01 5.485 -0.01 5.485 1 7 C1.28710938 9.77148438 1.28710938 9.77148438 1.34375 13.09375 C1.37339844 14.28871094 1.40304688 15.48367187 1.43359375 16.71484375 C1.47786458 19.23828125 1.52213542 21.76171875 1.56640625 24.28515625 C1.59605469 25.48011719 1.62570313 26.67507812 1.65625 27.90625 C1.67494141 29.00259766 1.69363281 30.09894531 1.71289062 31.22851562 C1.80432591 34.21133393 1.80432591 34.21133393 4 37 C1.0041691 35.66779754 -1.0078284 34.2611285 -3.1875 31.8125 C-3.69667969 31.26207031 -4.20585937 30.71164063 -4.73046875 30.14453125 C-8.01425267 24.59746242 -6.9961578 17.7483543 -6.5625 11.5625 C-6.51029297 10.73556641 -6.45808594 9.90863281 -6.40429688 9.05664062 C-6.27590237 7.03734522 -6.13884576 5.01860371 -6 3 C-4.03533587 1.93224776 -2.03144641 0.93446535 0 0 Z " fill="#E66C5B" transform="translate(143,62)"/>
<path d="M0 0 C1.65 0.33 3.3 0.66 5 1 C5.28545983 4.70648946 5.52200956 8.41456729 5.75 12.125 C5.87181641 13.69507812 5.87181641 13.69507812 5.99609375 15.296875 C6.4936099 24.03104742 6.4936099 24.03104742 4.265625 27.6171875 C2.15484637 29.83714433 0.7174132 30.75553042 -2 32 C-2.05802751 27.41671978 -2.09360593 22.83353396 -2.125 18.25 C-2.14175781 16.94804688 -2.15851563 15.64609375 -2.17578125 14.3046875 C-2.18222656 13.05429688 -2.18867187 11.80390625 -2.1953125 10.515625 C-2.20578613 9.36352539 -2.21625977 8.21142578 -2.22705078 7.02441406 C-2.00758762 4.10107034 -1.52728122 2.46267491 0 0 Z " fill="#D26C5E" transform="translate(117,64)"/>
<path d="M0 0 C0.66 0 1.32 0 2 0 C2 7.92 2 15.84 2 24 C4.31 24 6.62 24 9 24 C9 16.41 9 8.82 9 1 C9.66 1 10.32 1 11 1 C11.33 10.57 11.66 20.14 12 30 C12.66 29.67 13.32 29.34 14 29 C15.54023996 28.93049459 17.08334988 28.91547643 18.625 28.9375 C19.85089844 28.95103516 19.85089844 28.95103516 21.1015625 28.96484375 C21.72804687 28.97644531 22.35453125 28.98804687 23 29 C23 26.69 23 24.38 23 22 C25.1387261 25.20808915 25.47730962 26.27698497 25 30 C22 32 22 32 19 32 C19.33 33.32 19.66 34.64 20 36 C17.61499846 36.85178626 16.3334349 37.09806909 13.875 36.375 C11.37501225 34.54167565 10.8437156 32.9530046 10 30 C10 28.68 10 27.36 10 26 C8.68 26 7.36 26 6 26 C5.67 26.66 5.34 27.32 5 28 C5 27.34 5 26.68 5 26 C3.35 26.33 1.7 26.66 0 27 C0 18.09 0 9.18 0 0 Z " fill="#A4A9AB" transform="translate(124,77)"/>
<path d="M0 0 C0.99 0.33 1.98 0.66 3 1 C2.45730469 1.50789062 1.91460937 2.01578125 1.35546875 2.5390625 C-5.57830319 8.959972 -5.57830319 8.959972 -8.0625 17.75 C-8.041875 18.4925 -8.02125 19.235 -8 20 C-8.66 20.66 -9.32 21.32 -10 22 C-10.24212873 23.98128508 -10.24212873 23.98128508 -10.125 26.125 C-10.08375 27.40375 -10.0425 28.6825 -10 30 C-10.66 30 -11.32 30 -12 30 C-12 30.66 -12 31.32 -12 32 C-14.475 32.495 -14.475 32.495 -17 33 C-17.61178647 24.50296569 -17.99224972 17.40315055 -12.92578125 10.16015625 C-9.24608272 6.03262423 -4.96107769 2.48053884 0 0 Z " fill="#D9D9D9" transform="translate(117,8)"/>
<path d="M0 0 C1 2 1 2 0.44140625 3.9453125 C0.15136719 4.66460937 -0.13867188 5.38390625 -0.4375 6.125 C-0.72496094 6.84945312 -1.01242188 7.57390625 -1.30859375 8.3203125 C-1.53675781 8.87460938 -1.76492187 9.42890625 -2 10 C-1.34 10 -0.68 10 0 10 C-0.32218506 10.84473877 -0.64437012 11.68947754 -0.97631836 12.55981445 C-2.06086443 16.20454107 -2.30007656 19.2477374 -2.37890625 23.04296875 C-2.39590073 23.69324539 -2.4128952 24.34352203 -2.43040466 25.01350403 C-2.48310005 27.0714065 -2.5236477 29.12929347 -2.5625 31.1875 C-2.6204736 33.91035864 -2.68593994 36.63281821 -2.75390625 39.35546875 C-2.77783447 40.55840576 -2.8017627 41.76134277 -2.82641602 43.00073242 C-3 46 -3 46 -4 49 C-11.42857143 49.14285714 -11.42857143 49.14285714 -15 48 C-15.3125 45.8125 -15.3125 45.8125 -15 43 C-12.75 40.5 -12.75 40.5 -10 38 C-3.47197136 31.1093031 -4.7517459 21.542606 -4.65820312 12.5625 C-4.49073005 7.12546715 -4.16027983 3.93607313 0 0 Z " fill="#F6F7F7" transform="translate(127,57)"/>
<path d="M0 0 C1.98 0 3.96 0 6 0 C6.86483311 5.9915638 7.18280235 11.82442821 7.1875 17.875 C7.19974609 18.72835937 7.21199219 19.58171875 7.22460938 20.4609375 C7.22750977 21.68296875 7.22750977 21.68296875 7.23046875 22.9296875 C7.23457764 23.66429199 7.23868652 24.39889648 7.24291992 25.15576172 C7 27 7 27 5 29 C2.375 29.125 2.375 29.125 0 29 C-1.33257403 9.03189066 -1.33257403 9.03189066 0 0 Z " fill="#EDEDED" transform="translate(126,113)"/>
<path d="M0 0 C0.33 0 0.66 0 1 0 C1.04898438 0.80824219 1.09796875 1.61648437 1.1484375 2.44921875 C1.22320312 3.51785156 1.29796875 4.58648437 1.375 5.6875 C1.44460937 6.74324219 1.51421875 7.79898438 1.5859375 8.88671875 C2.38649143 14.90597802 4.51576275 17.95324931 9 22 C9.99 22.66 10.98 23.32 12 24 C12.1875 27.625 12.1875 27.625 12 31 C8.37 31.33 4.74 31.66 1 32 C0.05632108 28.22528434 -0.11521178 25.34659165 -0.09765625 21.484375 C-0.09443359 20.23398438 -0.09121094 18.98359375 -0.08789062 17.6953125 C-0.07951172 16.39335938 -0.07113281 15.09140625 -0.0625 13.75 C-0.05798828 12.43257812 -0.05347656 11.11515625 -0.04882812 9.7578125 C-0.03704316 6.50516259 -0.02059011 3.25260416 0 0 Z " fill="#F3F3F3" transform="translate(135,75)"/>
<path d="M0 0 C2.6875 0.375 2.6875 0.375 4.9375 2.625 C6.48703172 5.05997842 7.0986687 6.62712059 7.6875 9.375 C8.3475 9.705 9.0075 10.035 9.6875 10.375 C9.0275 10.375 8.3675 10.375 7.6875 10.375 C7.3575 13.345 7.0275 16.315 6.6875 19.375 C3.6875 16.375 3.6875 16.375 1.6875 13.375 C-1.37806598 12.64156572 -1.37806598 12.64156572 -4.3125 12.375 C-3.6525 9.405 -2.9925 6.435 -2.3125 3.375 C-3.3025 4.035 -4.2925 4.695 -5.3125 5.375 C-2.94258515 0.47717597 -2.94258515 0.47717597 0 0 Z " fill="#D7D9DA" transform="translate(129.3125,54.625)"/>
<path d="M0 0 C1.65 0 3.3 0 5 0 C6.17426264 2.34852528 6.11508173 3.73774065 6.09765625 6.3515625 C6.09443359 7.20234375 6.09121094 8.053125 6.08789062 8.9296875 C6.07951172 9.81914063 6.07113281 10.70859375 6.0625 11.625 C6.05798828 12.5221875 6.05347656 13.419375 6.04882812 14.34375 C6.03702591 16.56256648 6.02056155 18.78125018 6 21 C2.98968256 21.93423645 2.13349732 22.04449911 -1 21 C-1 16.05 -1 11.1 -1 6 C0.98 6 2.96 6 5 6 C4.67 5.34 4.34 4.68 4 4 C1.97536745 3.34786708 1.97536745 3.34786708 0 3 C0 2.01 0 1.02 0 0 Z " fill="#F5F4F4" transform="translate(127,80)"/>
<path d="M0 0 C-1.69056895 3.53482598 -2.62903194 5.4951427 -6.38671875 6.87890625 C-13.13622083 8.28792639 -13.13622083 8.28792639 -17 7 C-17.33 5.35 -17.66 3.7 -18 2 C-12.19166432 -2.03356644 -6.76605015 -0.908709 0 0 Z " fill="#F3ECEB" transform="translate(153,134)"/>
<path d="M0 0 C0.66 0.33 1.32 0.66 2 1 C0.515 2.485 0.515 2.485 -1 4 C-0.01 5.485 -0.01 5.485 1 7 C1.22705078 8.99291992 1.22705078 8.99291992 1.1953125 11.23046875 C1.18564453 12.43413086 1.18564453 12.43413086 1.17578125 13.66210938 C1.15902344 14.49548828 1.14226562 15.32886719 1.125 16.1875 C1.11597656 17.03248047 1.10695312 17.87746094 1.09765625 18.74804688 C1.07410703 20.83215243 1.03823647 22.91611217 1 25 C0.67 25 0.34 25 0 25 C0 20.38 0 15.76 0 11 C-1.65 11 -3.3 11 -5 11 C-5 12.98 -5 14.96 -5 17 C-4.01 17.33 -3.02 17.66 -2 18 C-2.99 18 -3.98 18 -5 18 C-5 21.3 -5 24.6 -5 28 C-7.24434537 24.63348195 -7.20138902 23.78403012 -6.9765625 19.89453125 C-6.925 18.91162109 -6.8734375 17.92871094 -6.8203125 16.91601562 C-6.75585938 15.89185547 -6.69140625 14.86769531 -6.625 13.8125 C-6.56828125 12.77673828 -6.5115625 11.74097656 -6.453125 10.67382812 C-6.31163334 8.11518729 -6.16022134 5.55752516 -6 3 C-4.03533587 1.93224776 -2.03144641 0.93446535 0 0 Z " fill="#B3665C" transform="translate(143,62)"/>
<path d="M0 0 C3.96 0 7.92 0 12 0 C11.48964169 4.3890815 10.47785723 7.33708062 8 11 C6.140625 10.74609375 6.140625 10.74609375 4 10 C2.734375 8.22265625 2.734375 8.22265625 1.75 6.0625 C1.41484375 5.35222656 1.0796875 4.64195312 0.734375 3.91015625 C0 2 0 2 0 0 Z " fill="#343B41" transform="translate(124,239)"/>
<path d="M0 0 C0.33 0 0.66 0 1 0 C1.10864945 2.06132142 1.18588321 4.12431321 1.25 6.1875 C1.29640625 7.33605469 1.3428125 8.48460937 1.390625 9.66796875 C0.92296566 13.65710294 -0.16502316 15.21091307 -3 18 C-3.99 18.33 -4.98 18.66 -6 19 C-6.39118173 11.56754709 -5.08261914 5.77570356 0 0 Z " fill="#F3E8E5" transform="translate(151,151)"/>
<path d="M0 0 C0 3.38023517 -0.87455622 5.83468937 -2 9 C1.96 9.33 5.92 9.66 10 10 C10 11.32 10 12.64 10 14 C9.01 14.495 9.01 14.495 8 15 C8 15.66 8 16.32 8 17 C4.94736336 17.98120464 3.05263664 17.98120464 0 17 C0.33 15.68 0.66 14.36 1 13 C-0.32 12.67 -1.64 12.34 -3 12 C-3.08131463 10.56344146 -3.13933559 9.1255517 -3.1875 7.6875 C-3.22230469 6.88699219 -3.25710937 6.08648437 -3.29296875 5.26171875 C-2.93801608 2.52148416 -2.10633718 1.70828921 0 0 Z " fill="#D47C6F" transform="translate(114,96)"/>
<path d="M0 0 C0.33 0 0.66 0 1 0 C1.33 3.3 1.66 6.6 2 10 C3.32 9.67 4.64 9.34 6 9 C8.24907152 8.93209325 10.50001605 8.91500016 12.75 8.9375 C14.50570312 8.95103516 14.50570312 8.95103516 16.296875 8.96484375 C17.18890625 8.97644531 18.0809375 8.98804688 19 9 C18 12 18 12 16 13 C13.28737884 13.2322646 10.59226874 13.41936235 7.875 13.5625 C7.12089844 13.60568359 6.36679688 13.64886719 5.58984375 13.69335938 C3.72678112 13.7994832 1.86341476 13.90025001 0 14 C-0.19393875 11.85473901 -0.37998676 9.70876323 -0.5625 7.5625 C-0.71912109 5.77005859 -0.71912109 5.77005859 -0.87890625 3.94140625 C-0.91886719 2.97074219 -0.95882812 2.00007813 -1 1 C-0.67 0.67 -0.34 0.34 0 0 Z " fill="#ED7B6A" transform="translate(99,30)"/>
<path d="M0 0 C2.1387261 3.20808915 2.47730962 4.27698497 2 8 C-1 10 -1 10 -4 10 C-3.67 11.32 -3.34 12.64 -3 14 C-5.41283832 14.86172797 -6.69465714 15.08724082 -9.1875 14.375 C-11 13 -11 13 -11.75 10.375 C-11.8325 9.59125 -11.915 8.8075 -12 8 C-9.11788698 7.03929566 -7.30149956 6.89418117 -4.3125 6.9375 C-3.10013672 6.95103516 -3.10013672 6.95103516 -1.86328125 6.96484375 C-0.94095703 6.98224609 -0.94095703 6.98224609 0 7 C0 4.69 0 2.38 0 0 Z " fill="#645C5E" transform="translate(147,99)"/>
<path d="M0 0 C2.16796875 1.10546875 2.16796875 1.10546875 5.23046875 3.10546875 C2.73814478 4.35163073 1.24405532 3.86844093 -1.4296875 3.421875 C-5.55677384 2.8637882 -9.72226781 2.71154012 -13.87890625 2.484375 C-16.76953125 2.10546875 -16.76953125 2.10546875 -19.76953125 0.10546875 C-14.59948813 -2.47955281 -5.42158688 -1.75111903 0 0 Z " fill="#B7B5B6" transform="translate(139.76953125,6.89453125)"/>
<path d="M0 0 C3.63 0.33 7.26 0.66 11 1 C10.01 2.485 10.01 2.485 9 4 C8.34 4 7.68 4 7 4 C6.34 5.32 5.68 6.64 5 8 C3.35 7.67 1.7 7.34 0 7 C-1.125 2.25 -1.125 2.25 0 0 Z " fill="#ECE9E8" transform="translate(140,47)"/>
<path d="M0 0 C0.99 0.33 1.98 0.66 3 1 C2.34 1.66 1.68 2.32 1 3 C-0.02980557 7.51054008 -0.18722301 11.97225053 -0.31640625 16.5859375 C-0.33718735 17.28772125 -0.35796844 17.989505 -0.37937927 18.71255493 C-0.44426324 20.93327958 -0.5034723 23.15411276 -0.5625 25.375 C-0.60574354 26.88933371 -0.6493596 28.40365683 -0.69335938 29.91796875 C-0.79988086 33.61186655 -0.90131677 37.30588354 -1 41 C-1.33 41 -1.66 41 -2 41 C-2.04941382 35.64316151 -2.08572607 30.2864555 -2.10986328 24.92944336 C-2.11992491 23.10682871 -2.1335756 21.28423021 -2.15087891 19.46166992 C-2.17512021 16.84289565 -2.18648138 14.22433469 -2.1953125 11.60546875 C-2.20563507 10.78974899 -2.21595764 9.97402924 -2.22659302 9.1335907 C-2.2273686 5.22869244 -2.21650661 3.32475992 0 0 Z " fill="#F6EEEC" transform="translate(126,151)"/>
<path d="M0 0 C0.66 0.33 1.32 0.66 2 1 C1.030625 1.598125 0.06125 2.19625 -0.9375 2.8125 C-3.32005008 4.74096407 -3.94234929 5.74184084 -4.62109375 8.78125 C-4.85130638 11.52963458 -4.99034134 14.2424518 -5 17 C-4.01 17.33 -3.02 17.66 -2 18 C-2.99 18 -3.98 18 -5 18 C-5 21.3 -5 24.6 -5 28 C-7.24434537 24.63348195 -7.20138902 23.78403012 -6.9765625 19.89453125 C-6.925 18.91162109 -6.8734375 17.92871094 -6.8203125 16.91601562 C-6.75585938 15.89185547 -6.69140625 14.86769531 -6.625 13.8125 C-6.56828125 12.77673828 -6.5115625 11.74097656 -6.453125 10.67382812 C-6.31163334 8.11518729 -6.16022134 5.55752516 -6 3 C-4.03533587 1.93224776 -2.03144641 0.93446535 0 0 Z " fill="#C46E62" transform="translate(143,62)"/>
<path d="M0 0 C0.33 0 0.66 0 1 0 C1.09507063 6.43311296 1.15316726 12.65758005 0 19 C-1.98 19.33 -3.96 19.66 -6 20 C-6.33 20.99 -6.66 21.98 -7 23 C-8.98 23 -10.96 23 -13 23 C-12.34 22.34 -11.68 21.68 -11 21 C-10.01 21 -9.02 21 -8 21 C-7.731875 20.360625 -7.46375 19.72125 -7.1875 19.0625 C-6 17 -6 17 -3 16 C-2.34 16.33 -1.68 16.66 -1 17 C-0.67 11.39 -0.34 5.78 0 0 Z " fill="#747072" transform="translate(125,124)"/>
<path d="M0 0 C2.31 0 4.62 0 7 0 C7 1.98 7 3.96 7 6 C3.98968256 6.93423645 3.13349732 7.04449911 0 6 C0 4.02 0 2.04 0 0 Z " fill="#F9F9F9" transform="translate(126,95)"/>
<path d="M0 0 C0.99 0.33 1.98 0.66 3 1 C0.22406868 3.98155586 -2.49805616 5.95008165 -6 8 C-7.68477344 9.31037934 -9.35648543 10.63823078 -11 12 C-11 9.875 -11 9.875 -10 7 C-6.98107995 4.22657454 -3.6694008 1.8347004 0 0 Z " fill="#BFBEBF" transform="translate(117,8)"/>
<path d="M0 0 C2.97 0 5.94 0 9 0 C9.33 0.66 9.66 1.32 10 2 C9.01 2.495 9.01 2.495 8 3 C8 3.66 8 4.32 8 5 C4.94736336 5.98120464 3.05263664 5.98120464 0 5 C0 3.35 0 1.7 0 0 Z " fill="#695A5C" transform="translate(114,108)"/>
<path d="M0 0 C1.9375 0.125 1.9375 0.125 4 1 C5.25 3.5625 5.25 3.5625 6 6 C3.03 6 0.06 6 -3 6 C-1.125 1.125 -1.125 1.125 0 0 Z " fill="#E36655" transform="translate(128,67)"/>
<path d="M0 0 C1.32 0 2.64 0 4 0 C4 3.3 4 6.6 4 10 C2.68 10 1.36 10 0 10 C0 6.7 0 3.4 0 0 Z " fill="#F9725D" transform="translate(138,77)"/>
<path d="M0 0 C1.65 0 3.3 0 5 0 C6.20272819 2.40545638 6.10071472 3.94996953 6.0625 6.625 C6.05347656 7.44226563 6.04445312 8.25953125 6.03515625 9.1015625 C6.02355469 9.72804688 6.01195312 10.35453125 6 11 C5.67 9.68 5.34 8.36 5 7 C3.35 7 1.7 7 0 7 C0 8.65 0 10.3 0 12 C-0.33 12 -0.66 12 -1 12 C-1 10.02 -1 8.04 -1 6 C0.98 6 2.96 6 5 6 C4.67 5.34 4.34 4.68 4 4 C1.97536745 3.34786708 1.97536745 3.34786708 0 3 C0 2.01 0 1.02 0 0 Z " fill="#F9F9F9" transform="translate(127,80)"/>
<path d="M0 0 C1 2 1 2 0.44140625 3.9453125 C0.15136719 4.66460937 -0.13867188 5.38390625 -0.4375 6.125 C-0.72496094 6.84945312 -1.01242188 7.57390625 -1.30859375 8.3203125 C-1.53675781 8.87460938 -1.76492187 9.42890625 -2 10 C-1.34 10 -0.68 10 0 10 C-0.66 11.32 -1.32 12.64 -2 14 C-2.66 13.67 -3.32 13.34 -4 13 C-4.49230769 5.73846154 -4.49230769 5.73846154 -2 2 C-1.34 1.34 -0.68 0.68 0 0 Z " fill="#F2F4F5" transform="translate(127,57)"/>
<path d="M0 0 C3.63 0 7.26 0 11 0 C11.33 0.99 11.66 1.98 12 3 C11.01 3 10.02 3 9 3 C9 5.31 9 7.62 9 10 C8.67 10 8.34 10 8 10 C8 7.69 8 5.38 8 3 C5.36 3 2.72 3 0 3 C0 2.01 0 1.02 0 0 Z " fill="#BE756B" transform="translate(124,110)"/>
<path d="M0 0 C0.99 0 1.98 0 3 0 C3.38063221 2.3260857 3.71269945 4.66055264 4 7 C3 8 3 8 1.15234375 8.09765625 C-0.8984375 8.06510417 -2.94921875 8.03255208 -5 8 C-5 7.67 -5 7.34 -5 7 C-3.35 7 -1.7 7 0 7 C0 4.69 0 2.38 0 0 Z " fill="#E6ECED" transform="translate(131,103)"/>
<path d="M0 0 C2.14809171 3.22213757 2.29386153 4.27775401 2 8 C0.18884044 9.81115956 -2.61278227 9.38199448 -5.0625 9.5625 C-6.71958984 9.68818359 -6.71958984 9.68818359 -8.41015625 9.81640625 C-9.26480469 9.87699219 -10.11945313 9.93757813 -11 10 C-11 9.34 -11 8.68 -11 8 C-8.59454362 6.79727181 -7.05003047 6.89928528 -4.375 6.9375 C-3.14910156 6.95103516 -3.14910156 6.95103516 -1.8984375 6.96484375 C-0.95871094 6.98224609 -0.95871094 6.98224609 0 7 C0 4.69 0 2.38 0 0 Z " fill="#D57769" transform="translate(147,99)"/>
<path d="M0 0 C0.66 0 1.32 0 2 0 C2 1.98 2 3.96 2 6 C4.31 6 6.62 6 9 6 C9.33 6.66 9.66 7.32 10 8 C8.68 8 7.36 8 6 8 C5.67 8.66 5.34 9.32 5 10 C5 9.34 5 8.68 5 8 C3.35 8.33 1.7 8.66 0 9 C0 6.03 0 3.06 0 0 Z " fill="#B6BABC" transform="translate(124,95)"/>
<path d="M0 0 C3.96 0 7.92 0 12 0 C12 0.66 12 1.32 12 2 C9.03 2 6.06 2 3 2 C3 2.66 3 3.32 3 4 C2.34 4 1.68 4 1 4 C0.67 2.68 0.34 1.36 0 0 Z " fill="#202E35" transform="translate(124,239)"/>
<path d="M0 0 C-0.61875 0.28875 -1.2375 0.5775 -1.875 0.875 C-4.13325765 1.93720042 -4.13325765 1.93720042 -6 4 C-6 4.99 -6 5.98 -6 7 C-5.34 7.66 -4.68 8.32 -4 9 C-5.32 8.67 -6.64 8.34 -8 8 C-8.6875 5.6875 -8.6875 5.6875 -9 3 C-6.81596628 -0.72570458 -3.98864065 -0.26590938 0 0 Z " fill="#FE6954" transform="translate(150,38)"/>
<path d="M0 0 C-0.30618405 3.67420866 -0.75771784 4.78135513 -3.5625 7.3125 C-4.366875 7.869375 -5.17125 8.42625 -6 9 C-5.71848913 7.68528432 -5.42446661 6.37324233 -5.125 5.0625 C-4.96257812 4.33160156 -4.80015625 3.60070312 -4.6328125 2.84765625 C-3.73508672 0.22651863 -2.68779246 0 0 0 Z " fill="#F4E1DD" transform="translate(193,122)"/>
<path d="M0 0 C1.32 0 2.64 0 4 0 C4 1.98 4 3.96 4 6 C2.68 6 1.36 6 0 6 C0 4.02 0 2.04 0 0 Z " fill="#F0F1F1" transform="translate(125,103)"/>
<path d="M0 0 C0.33 0 0.66 0 1 0 C1 4.29 1 8.58 1 13 C0.34 12.01 -0.32 11.02 -1 10 C-1.66 10 -2.32 10 -3 10 C-3 8.35 -3 6.7 -3 5 C-2.34 5 -1.68 5 -1 5 C-0.67 3.35 -0.34 1.7 0 0 Z " fill="#BCC1C3" transform="translate(136,68)"/>
<path d="M0 0 C0.33 1.32 0.66 2.64 1 4 C-1.31 4 -3.62 4 -6 4 C-6 3.01 -6 2.02 -6 1 C-4.02 0.67 -2.04 0.34 0 0 Z " fill="#E4E5E6" transform="translate(132,91)"/>
<path d="M0 0 C0.99 0.33 1.98 0.66 3 1 C-0.32307692 4.93846154 -0.32307692 4.93846154 -3.75 5.25 C-4.4925 5.1675 -5.235 5.085 -6 5 C-2.25 1.125 -2.25 1.125 0 0 Z " fill="#AAA9AB" transform="translate(117,8)"/>
<path d="M0 0 C0.66 0.33 1.32 0.66 2 1 C2.34541851 3.33157492 2.67794257 5.66508361 3 8 C3.99 9.485 3.99 9.485 5 11 C2.58896173 10.03558469 1.22595242 9.31202953 -0.3125 7.1875 C-1.17031512 4.45808824 -0.75644808 2.72321308 0 0 Z " fill="#976A65" transform="translate(142,88)"/>
<path d="M0 0 C0.6875 1.625 0.6875 1.625 1 4 C-0.4375 7.25 -0.4375 7.25 -2 10 C-3.01136941 7.26930259 -3.04557718 6.13998707 -2.125 3.3125 C-1 1 -1 1 0 0 Z " fill="#F7B098" transform="translate(144,221)"/>
<path d="M0 0 C0.33 1.32 0.66 2.64 1 4 C2.98 3.67 4.96 3.34 7 3 C7 3.66 7 4.32 7 5 C4.03 5 1.06 5 -2 5 C-1.34 3.35 -0.68 1.7 0 0 Z " fill="#B76E65" transform="translate(127,68)"/>
<path d="M0 0 C0.66 0.33 1.32 0.66 2 1 C-0.64 2.98 -3.28 4.96 -6 7 C-6 5.68 -6 4.36 -6 3 C-4.03533587 1.93224776 -2.03144641 0.93446535 0 0 Z " fill="#7D6767" transform="translate(143,62)"/>
<path d="M0 0 C2.31 0 4.62 0 7 0 C7 1.32 7 2.64 7 4 C4.08482708 2.92598892 2.22189824 2.22189824 0 0 Z " fill="#F7FCFC" transform="translate(126,73)"/>
</svg>
