<?xml version="1.0" standalone="no"?>
<!DOCTYPE svg PUBLIC "-//W3C//DTD SVG 20010904//EN"
 "http://www.w3.org/TR/2001/REC-SVG-20010904/DTD/svg10.dtd">
<svg version="1.0" xmlns="http://www.w3.org/2000/svg"
 width="256.000000pt" height="256.000000pt" viewBox="0 0 256.000000 256.000000"
 preserveAspectRatio="xMidYMid meet">

<g transform="translate(0.000000,256.000000) scale(0.100000,-0.100000)"
fill="#000000" stroke="none">
<path d="M1528 2525 c-3 -3 -35 -14 -72 -24 -69 -19 -146 -65 -146 -86 0 -7
-7 -18 -15 -25 -12 -10 -21 -8 -50 8 -34 21 -35 21 -45 2 -12 -22 -4 -64 17
-96 12 -19 9 -24 -45 -68 -51 -41 -135 -132 -162 -176 -8 -12 -12 -11 -32 6
-37 34 -46 36 -82 19 -41 -20 -79 -87 -70 -123 14 -52 -41 -4 -99 89 -71 112
-199 188 -307 182 -25 -1 -67 -3 -93 -3 -65 0 -57 -15 28 -51 38 -17 75 -35
83 -41 22 -18 79 -109 101 -160 34 -80 -1 -64 -136 63 -94 88 -130 100 -222
74 -36 -11 -90 -19 -119 -20 -47 0 -52 -2 -52 -22 0 -12 -3 -30 -6 -40 -5 -16
-4 -16 5 -1 16 23 136 23 154 -1 29 -37 66 -63 83 -57 14 6 12 11 -16 36 -19
17 -37 30 -42 30 -4 0 -8 6 -8 14 0 22 89 32 108 12 15 -15 15 -16 -2 -16 -23
0 -16 -22 13 -36 24 -12 71 -54 71 -63 0 -3 -35 -7 -77 -9 -84 -3 -173 -15
-240 -34 -35 -10 -43 -17 -43 -36 0 -21 3 -23 28 -17 15 4 36 9 47 11 11 2 43
8 70 14 28 5 98 13 158 18 103 7 107 7 107 -13 1 -29 24 -55 49 -55 14 0 21
-6 21 -20 0 -15 7 -20 29 -20 23 0 30 -5 33 -22 3 -20 9 -22 68 -24 36 -1 65
-2 65 -4 0 -1 13 -3 28 -5 16 -2 36 -12 45 -22 9 -11 25 -17 35 -15 16 3 17 1
8 -16 -6 -12 -11 -23 -11 -26 0 -7 120 -3 120 4 0 7 164 -1 170 -9 3 -3 23
-19 45 -35 22 -16 48 -38 58 -48 19 -19 14 -43 -7 -35 -7 3 -26 -6 -42 -19
-27 -22 -28 -25 -11 -38 9 -7 17 -17 17 -22 0 -5 9 -16 20 -24 23 -17 27 -35
5 -26 -9 3 -15 0 -15 -9 0 -8 6 -15 14 -15 8 0 18 -9 21 -21 11 -33 43 -60 78
-65 42 -6 91 -12 146 -19 52 -6 58 -10 42 -29 -15 -18 -6 -37 14 -30 8 4 28
-5 44 -17 15 -13 37 -29 47 -36 18 -12 18 -13 2 -23 -10 -6 -18 -18 -18 -25 0
-18 5 -18 31 -4 21 11 59 4 59 -12 0 -5 -11 -7 -25 -3 -20 5 -25 2 -25 -11 0
-10 8 -24 18 -31 16 -13 15 -14 -6 -20 -14 -4 -22 -13 -20 -23 4 -16 20 -19
49 -7 13 6 19 -8 33 -76 10 -45 20 -106 23 -135 l6 -53 -47 0 c-37 0 -52 -5
-70 -25 -28 -30 -56 -113 -56 -166 0 -40 -7 -48 -27 -28 -16 16 -6 61 33 148
35 76 39 91 27 91 -13 0 -53 -65 -73 -118 -38 -99 -32 -257 12 -329 23 -38 43
-44 35 -10 -4 12 -16 57 -28 100 -11 43 -18 81 -15 84 13 13 36 -22 36 -54 0
-66 73 -176 111 -166 13 4 19 0 19 -11 0 -25 -55 -177 -78 -216 l-21 -35 30 0
c26 0 33 6 54 49 13 27 33 88 45 136 l22 88 59 12 c37 8 59 18 59 26 0 8 -10
14 -22 14 -19 0 -20 2 -6 18 8 9 18 25 21 35 4 10 17 17 32 17 20 0 26 4 23
17 -2 12 -12 17 -25 16 -13 -2 -36 12 -59 35 -31 30 -39 34 -42 20 -2 -10 7
-36 19 -58 21 -37 21 -41 6 -58 -9 -10 -17 -23 -17 -29 0 -12 -30 -26 -38 -19
-2 3 1 25 7 50 14 57 14 93 0 102 -6 3 -16 1 -22 -5 -16 -16 -37 -14 -31 3 7
18 71 34 166 40 118 9 133 -3 128 -93 -2 -39 13 -39 44 2 19 26 19 28 3 62 -9
19 -21 35 -27 35 -5 0 -10 4 -10 8 0 7 16 17 81 50 4 1 17 -13 29 -33 17 -27
27 -34 41 -30 11 4 19 2 19 -4 0 -18 36 -12 55 9 10 11 20 18 22 16 6 -6 -19
-56 -29 -56 -4 0 -8 -6 -8 -13 0 -7 -18 -23 -40 -36 -22 -12 -43 -28 -48 -36
-4 -9 -43 -21 -92 -30 -47 -9 -98 -18 -115 -21 -37 -7 -42 -11 -27 -26 15 -15
295 26 356 51 67 29 112 75 136 137 25 67 25 97 1 151 -25 53 -102 106 -191
128 -69 18 -99 17 -240 -9 -47 -8 -107 -16 -135 -18 l-50 -3 -3 33 c-2 23 2
38 14 46 13 10 16 22 10 54 -10 63 -26 93 -47 87 -14 -5 -20 1 -26 22 -13 52
3 88 34 76 11 -4 14 1 11 17 -2 14 -17 30 -38 41 -19 11 -37 27 -41 36 -4 10
-30 27 -59 38 -110 42 -87 61 101 80 114 11 180 72 159 146 -8 27 -6 36 15 60
13 16 26 38 30 49 6 19 25 28 25 12 0 -4 18 -25 40 -47 46 -46 124 -142 163
-201 36 -54 64 -135 71 -209 17 -164 26 -207 53 -260 27 -52 74 -105 94 -105
25 0 24 18 -1 45 -24 26 -34 63 -34 125 0 49 21 131 32 129 4 0 32 -29 62 -63
47 -53 114 -106 134 -106 16 0 3 39 -19 60 -36 34 -56 104 -47 170 4 30 6 87
6 126 -1 64 -5 79 -41 145 -27 49 -55 85 -84 107 -24 18 -51 39 -59 45 -31 25
-160 107 -167 107 -24 0 -143 137 -143 164 0 3 43 3 96 0 88 -6 97 -5 115 15
11 11 25 21 31 21 10 0 63 51 122 118 26 30 28 35 16 57 -11 21 -11 27 4 44
23 25 17 55 -12 59 -28 4 -28 10 4 43 34 35 26 55 -25 64 -39 6 -39 7 -34 42
l6 36 -40 -5 c-39 -6 -41 -4 -47 22 -5 27 -7 28 -38 19 -45 -13 -58 -11 -58 6
0 8 -5 15 -10 15 -6 0 -27 -7 -47 -15 -42 -18 -57 -19 -47 -4 9 15 -13 28 -37
22 -11 -3 -31 -19 -44 -35 -16 -19 -31 -28 -41 -24 -10 4 -23 -8 -42 -39 -15
-24 -36 -45 -46 -47 -33 -5 -42 -76 -21 -179 6 -34 5 -37 -27 -51 -18 -9 -60
-16 -92 -17 -72 -2 -138 -29 -186 -76 -31 -30 -40 -34 -65 -27 -17 4 -40 7
-52 6 -30 -2 -73 -31 -73 -49 0 -8 -4 -15 -10 -15 -5 0 -10 6 -10 14 0 7 -11
25 -24 39 l-23 25 27 29 c15 15 50 50 77 76 28 27 59 66 68 88 16 35 45 54 45
29 0 -13 54 -40 83 -40 12 0 28 -5 34 -11 22 -22 24 10 3 50 -28 56 -25 74 17
102 53 35 72 66 84 138 11 73 2 96 -29 68 -10 -9 -40 -26 -67 -37 -28 -12 -60
-26 -72 -32 -32 -16 -40 -2 -16 25 29 33 94 157 88 168 -7 10 -19 12 -27 4z
m-72 -112 c-14 -20 -26 -43 -26 -50 0 -7 -10 -12 -21 -10 -34 3 -34 -20 0 -37
16 -9 32 -24 36 -35 12 -39 74 -36 118 5 29 27 37 30 37 12 -1 -23 -44 -64
-102 -97 -32 -18 -58 -39 -58 -47 0 -10 6 -13 18 -10 13 5 22 -1 30 -19 7 -14
12 -28 12 -31 0 -7 -51 27 -80 53 -14 13 -27 23 -30 22 -3 0 -18 -26 -34 -59
-15 -32 -41 -74 -58 -94 -35 -43 -187 -146 -215 -146 -24 0 -33 -8 -27 -25 4
-9 21 -12 62 -8 52 5 59 3 82 -22 l25 -27 -32 -27 c-31 -26 -140 -67 -151 -56
-3 3 13 13 36 23 40 16 57 41 30 43 -7 0 -30 3 -52 5 -28 4 -44 0 -59 -13 -20
-17 -20 -17 -15 4 5 19 1 22 -36 26 -107 13 -193 30 -213 43 -30 19 -73 66
-73 80 0 6 -7 17 -15 24 -20 17 -19 31 1 23 14 -5 16 -1 10 30 -6 32 -4 37 12
37 11 0 27 -16 42 -42 13 -24 33 -51 45 -60 26 -22 106 -61 125 -61 8 0 20 -4
27 -9 16 -13 36 0 29 18 -3 9 8 17 36 26 24 7 43 19 46 30 2 10 9 18 14 18 14
0 34 23 42 47 4 12 17 28 30 36 13 9 29 29 36 46 7 17 18 31 24 31 6 0 30 19
54 41 28 27 42 48 42 66 0 26 0 26 20 8 20 -18 21 -18 42 3 l21 21 -25 39 -26
39 34 12 c19 7 34 17 34 22 0 5 8 13 18 16 9 4 34 24 55 46 45 48 58 43 23
-10z m514 -144 c0 -7 10 -9 28 -4 15 4 54 8 87 8 52 2 61 -1 66 -18 4 -16 13
-20 47 -19 39 1 40 0 26 -20 -20 -29 -18 -49 5 -41 26 8 71 -4 71 -20 0 -7
-10 -20 -22 -28 l-23 -16 28 -25 c15 -14 27 -28 27 -31 0 -3 -12 -10 -27 -16
l-28 -11 24 -19 c29 -23 22 -46 -16 -51 -21 -2 -28 -8 -26 -23 2 -23 -13 -35
-44 -35 -26 0 -27 3 -12 32 9 16 8 23 -2 29 -23 15 -69 11 -69 -6 0 -8 8 -15
18 -15 16 -1 16 -1 0 -14 -10 -7 -18 -18 -18 -24 0 -15 28 -23 34 -9 3 9 8 8
15 -3 21 -30 13 -41 -24 -34 -30 5 -35 4 -35 -13 0 -16 -6 -18 -40 -15 -29 3
-40 9 -40 21 0 9 -13 32 -30 51 -38 45 -38 60 0 60 30 0 40 -13 20 -25 -8 -5
-7 -11 1 -21 10 -13 15 -10 32 16 26 41 17 60 -29 60 -23 0 -42 6 -50 18 -13
16 -13 16 -14 0 0 -12 -8 -18 -25 -18 -22 0 -25 4 -25 34 0 40 19 58 27 27 3
-12 12 -21 19 -21 11 0 13 10 9 42 -7 58 -18 66 -50 34 -14 -14 -32 -26 -39
-26 -22 0 -37 55 -24 91 9 26 14 30 34 25 18 -5 26 -2 31 11 9 25 45 73 55 73
4 0 8 -5 8 -11z m-1457 -99 c68 -26 89 -49 91 -99 1 -31 -3 -41 -17 -45 -11
-3 -21 2 -24 12 -10 28 -55 85 -93 119 -41 38 -31 41 43 13z m379 -204 c-2
-15 2 -34 9 -42 9 -11 8 -14 -4 -14 -22 0 -36 30 -30 63 7 36 29 29 25 -7z
m-468 -11 c4 -10 -1 -15 -14 -15 -13 0 -18 5 -14 15 4 8 10 15 14 15 4 0 10
-7 14 -15z m1405 -52 c10 -21 35 -50 54 -66 23 -18 39 -42 47 -71 8 -28 32
-66 72 -110 33 -36 63 -66 68 -66 4 0 42 -21 83 -46 221 -135 289 -242 263
-412 -10 -69 -12 -71 -26 -50 -16 25 -17 29 -19 59 0 12 -10 23 -21 26 -15 4
-19 11 -15 24 4 13 1 19 -9 19 -9 0 -16 6 -16 13 0 24 -111 200 -154 245 -22
24 -63 62 -89 84 -39 33 -51 38 -58 27 -6 -10 -2 -19 14 -31 30 -23 16 -33
-20 -15 -59 31 -201 218 -231 306 -22 64 -14 87 35 100 2 1 11 -16 22 -36z
m-199 -24 c0 -17 -5 -20 -21 -16 -12 3 -22 0 -26 -9 -3 -8 -16 -14 -29 -14
-15 0 -24 -6 -24 -15 0 -8 -5 -15 -10 -15 -14 0 -45 -30 -59 -58 -17 -32 -33
-18 -19 16 18 42 57 80 112 107 61 31 76 31 76 4z m41 -69 c5 0 9 -9 9 -21 0
-11 5 -17 10 -14 6 3 10 -3 10 -14 0 -12 7 -21 16 -21 8 0 12 -4 9 -10 -6 -9
-2 -16 35 -59 45 -53 45 -60 -2 -108 -23 -24 -58 -53 -76 -65 l-33 -20 -26 23
c-40 37 -113 145 -113 165 0 27 119 156 137 150 8 -4 19 -6 24 -6z m-271 -10
c0 -5 -4 -10 -10 -10 -5 0 -10 -7 -10 -15 0 -8 -7 -15 -15 -15 -8 0 -15 -9
-15 -20 0 -11 -4 -20 -10 -20 -5 0 -10 -7 -10 -15 0 -25 -23 -65 -37 -65 -11
0 -12 9 -8 38 11 63 26 106 43 120 19 14 72 16 72 2z m-151 -92 c-4 -24 -8
-62 -9 -85 0 -24 -3 -43 -7 -43 -5 1 -26 19 -48 40 -22 22 -43 40 -47 40 -22
0 -4 20 27 30 19 6 44 22 57 35 32 34 37 31 27 -17z m265 -130 c10 -15 13 -28
8 -28 -15 0 -62 67 -62 87 0 15 3 14 19 -6 10 -14 26 -37 35 -53z m-130 -28
c11 -22 17 -42 15 -45 -8 -7 -79 15 -79 25 0 4 -2 15 -5 22 -4 9 4 19 17 26
32 15 31 16 52 -28z m470 18 c-24 -43 -58 -78 -75 -78 -26 0 -25 2 19 49 35
38 72 57 56 29z m201 -88 c3 -6 -1 -7 -9 -4 -18 7 -21 14 -7 14 6 0 13 -4 16
-10z m-437 -28 c6 -18 -15 -14 -22 4 -4 10 -1 14 6 12 6 -2 14 -10 16 -16z
m-126 -31 c6 -14 15 -34 20 -45 8 -15 4 -24 -16 -45 l-26 -26 -26 27 c-32 31
-41 103 -16 117 24 13 53 1 64 -28z m306 -8 c3 -25 -2 -35 -23 -49 -30 -20
-125 -44 -174 -44 l-33 0 48 58 c27 31 53 60 59 65 5 4 35 6 65 5 54 -3 55 -4
58 -35z m357 7 c3 -5 1 -10 -4 -10 -6 0 -11 5 -11 10 0 6 2 10 4 10 3 0 8 -4
11 -10z m39 -61 c19 -17 -2 -19 -37 -4 -46 19 -49 38 -4 23 17 -6 36 -15 41
-19z m-4 -49 c0 -5 -2 -10 -4 -10 -3 0 -8 5 -11 10 -3 6 -1 10 4 10 6 0 11 -4
11 -10z m44 -57 c37 -17 43 -30 52 -120 4 -40 1 -76 -11 -115 -19 -67 -35 -75
-35 -19 0 63 -20 193 -35 234 -17 43 -17 42 29 20z m-224 -518 c0 -9 -13 -24
-30 -33 -32 -18 -39 -39 -15 -48 8 -4 15 -12 15 -20 0 -8 6 -11 15 -8 8 4 15
1 15 -5 0 -11 -47 -39 -89 -51 -14 -4 -34 -11 -43 -15 -31 -12 -21 23 11 39
28 15 41 34 41 61 0 16 -38 17 -58 2 -9 -7 -20 -3 -35 12 -26 24 -57 28 -57 7
0 -7 11 -30 25 -51 36 -52 27 -71 -38 -79 -28 -4 -74 -14 -101 -23 -48 -15
-48 -16 -42 -52 3 -20 6 -48 6 -63 0 -18 5 -28 15 -28 10 0 15 10 15 30 0 21
5 30 16 30 10 0 14 -6 11 -14 -3 -7 -9 -34 -12 -60 -7 -47 -25 -64 -25 -23
l-1 22 -20 -24 c-23 -28 -20 -29 -49 29 -31 61 -39 217 -15 274 20 47 29 38
45 -41 11 -52 25 -67 36 -39 3 7 -2 40 -10 72 -8 32 -14 59 -13 60 1 0 17 4
35 7 l32 7 0 -55 c0 -40 4 -55 14 -55 18 0 26 22 26 70 0 43 -1 43 120 55 30
3 73 9 95 14 59 13 65 12 65 -4z m62 -25 c-22 -22 -44 -40 -46 -40 -7 0 13 51
26 67 6 7 22 13 36 13 25 0 25 -1 -16 -40z m171 -15 c37 -25 67 -70 67 -99 0
-12 -7 -14 -30 -10 -18 4 -36 1 -45 -6 -13 -11 -15 -7 -15 23 0 19 -7 53 -15
76 -8 22 -11 41 -7 41 4 0 24 -11 45 -25z m-103 -23 c0 -10 -22 -32 -32 -32
-13 0 -9 28 5 33 19 8 27 8 27 -1z m-41 -92 c0 -11 -3 -10 -14 4 -8 11 -15 27
-15 35 0 11 4 10 15 -5 8 -10 14 -26 14 -34z m181 -41 c0 -5 -7 -9 -15 -9 -8
0 -15 7 -15 15 0 9 6 12 15 9 8 -4 15 -10 15 -15z m-30 -56 c0 -10 -32 -43
-41 -43 -5 0 -3 11 3 25 10 22 38 36 38 18z"/>
<path d="M2000 2198 c-19 -13 -36 -34 -38 -46 -4 -27 14 -29 30 -2 17 26 25
25 32 -5 8 -31 36 -33 36 -2 -1 12 -6 35 -13 50 l-12 28 -35 -23z"/>
<path d="M2120 2081 c-43 -7 -50 -38 -7 -33 19 3 27 -1 27 -12 0 -25 19 -19
30 10 18 47 18 47 -50 35z"/>
<path d="M1826 1845 c-15 -39 66 -205 101 -205 21 0 16 17 -26 86 -22 36 -43
79 -46 95 -8 34 -21 45 -29 24z"/>
<path d="M77 1973 c-13 -12 -7 -33 8 -33 8 0 15 9 15 20 0 20 -11 26 -23 13z"/>
<path d="M115 1839 c-91 -13 -102 -17 -108 -40 -4 -16 -2 -19 11 -14 9 3 63
13 119 22 72 11 103 20 103 29 0 16 -31 16 -125 3z"/>
</g>
</svg>
