<svg xmlns="http://www.w3.org/2000/svg" width="256" height="256"><path d="M157 3c-.603 4.507-2.366 7.859-4.563 11.813l-.998 1.81A748.977 748.977 0 0 1 149 21c1.96-.786 3.919-1.579 5.875-2.375l3.305-1.336c2.883-1.12 2.883-1.12 4.82-3.289h3c1.472 5.593.968 10.616-1 16-2.403 3.69-4.915 7.33-9.227 8.715L154 39l.621 1.793C156 44.837 157.318 48.769 158 53c-4.48 1.493-7.739-.276-12-2-3.063-1.688-3.063-1.688-5-3l-1.75 3.125c-5.545 9.64-5.545 9.64-9.25 10.875-2.75 2.25-2.75 2.25-5 5-.298 3.776-.298 3.776 1 6l1.625-.875c4.411-2.09 7.589-3.405 12.438-2.438L144 70c2.667-2.166 2.667-2.166 5-5 6.197-4.519 12.494-5.124 20-6l4.813-.625L177 58l-.438-1.688C174.8 49.068 173.589 41.995 177 35c1.328-.354 2.662-.685 4-1l1.875-2.875c2.42-3.559 4.302-4.336 8.125-6.125l1.563-2.125C194 21 194 21 196.438 20.062 199 20 199 20 201 21.563L203 23c2.529-.845 2.529-.845 5-2 2.313.375 2.313.375 4 1v2l2-1c2.333-.04 4.667-.043 7 0l2 4c1.454-.03 1.454-.03 2.938-.063C229 27 229 27 230 28c.04 1.666.043 3.334 0 5l8 3c-.498 3.688-1.1 5.605-4 8l4 3c-.926 4.765-.926 4.765-1.625 7-.553 2.094-.553 2.094.375 4.438L237 61c-2.316 2.793-4.814 4.857-7.688 7.063-2.398 1.733-2.398 1.733-3.312 4.062-1.418 2.66-3.234 2.863-6 3.875l-1.396 1.54c-2.06 1.874-3.088 1.811-5.834 1.753l-2.432-.03c-.833-.024-1.667-.05-2.525-.076l-2.561-.04c-2.084-.036-4.168-.09-6.252-.147 5.485 7.839 11.102 12.537 19.285 17.336 4.787 2.934 9.254 6.261 13.715 9.664l2.227 1.61c7.116 5.55 12.575 14.366 13.773 23.39.333 5.571-.098 11.023-.688 16.563-.509 5.808.272 10.154 2.688 15.437h2c1.625 1.25 1.625 1.25 3 3v4c-2.527.953-3.599 1.177-6.113.066-4.847-3.314-8.7-6.745-12.38-11.332-1.583-1.975-1.583-1.975-4.507-3.734-1.736 12.218-1.736 12.218 2.688 23.188C236 180 236 180 235.688 182.25L235 184h-4l2.438 2.813c3.194 3.686 3.92 6.964 3.84 11.87-.92 7.682-4.4 13.462-10.278 18.317h-2v2c-7.875 2.878-15.594 4.576-23.875 5.75l-2.7.386c-4.854.65-9.529.997-14.425.864l-1-4c3.795-2.214 7.756-3.01 12-4l-1-1a91.472 91.472 0 0 1-.063-5.063l.028-2.785L194 207c-5.606-.826-10.423-1.068-16 0 2.834 3.254 4.686 4.52 9 5l-1 5-1.875.313c-2.49.562-2.49.562-4.125 3.687l2 2-1 4-11 2c-.23 1.195-.461 2.39-.7 3.621-3.31 16.385-3.31 16.385-8.3 23.379h-8l1.426-3.402c3.11-7.462 6.184-14.867 8.574-22.598l-2.75-.188c-3.988-.996-5.016-2.46-7.25-5.812v5c-2.313-.125-2.313-.125-5-1-5.68-8.206-6.128-20.232-4.535-29.79 1.57-6.592 4.132-12.978 8.535-18.21 2.191-.773 2.191-.773 4-1l1 3 2-1c2.672-.134 5.323-.043 8 0l-.367-1.972c-.547-2.946-1.09-5.893-1.633-8.84l-.578-3.104-.547-2.979-.508-2.745C163 159 163 159 163 156l-2.375 1.063L158 158l-2-1 .5-2.375c.624-3.277.574-4.403-.5-7.625l-3-1 .5-1.875c.576-2.086.576-2.086.5-4.125-3.407-3.206-6.514-4.748-11-6l1-4-2.746-.148c-6.963-.428-13.498-1.105-20.254-2.852v-3h-3l-.313-1.875c-.562-2.49-.562-2.49-3.687-4.125l1-6h-2c-1.75-1.688-1.75-1.688-3-4 .7-3.588 1.606-4.728 4.625-6.813L117 100a316933028.358 316933028.358 0 0 0-6.055-5.371c-6.332-5.302-18.545-3.803-26.382-3.191A388.4 388.4 0 0 0 79 92l-1.375-2.438C76.253 86.912 76.253 86.912 74 86v-2l-3.105-.148-4.082-.227c-.674-.03-1.348-.062-2.042-.094C60.803 83.3 57.593 82.716 54 81v-3l-7-1v-2l-1.813-.625C42.202 72.498 41.47 70.141 40 67c-3.354.31-6.708.623-10.063.938l-2.857.263C22.028 68.676 17.015 69.228 12 70h12l1 4c-5.217 1.967-10.39 2.816-15.875 3.625l-2.664.406c-2.153.328-4.307.65-6.461.969V66l2.938-1.188c3.284-1.488 3.284-1.488 3.937-4.5L7 58h4l1 3-1 2 2.941-.96c4.315-1.234 8.531-1.481 12.996-1.665l2.362-.117c1.9-.093 3.8-.177 5.701-.258-1.866-1.975-3.248-3.133-5.688-4.438L27 54v-4l-7 1 2.938 1.813C26 55 26 55 27 58l-1 2c-4.385-.501-6.8-1.983-10-5v-2l-1.793.035C9.997 53.083 6.107 53.06 2 52l-1 4H0V45l4.875.188c4.093.015 7.43-.402 11.313-1.688 5.98-1.974 10.907-2.577 16.875 0 3.88 2.137 6.3 4.986 9.062 8.395C45.307 55.467 49.141 58.2 53 61c-3.434-8.726-7.488-16.403-16-21a211.109 211.109 0 0 0-4.25-1.5c-3.566-1.232-3.566-1.232-5.25-3.688L27 33c2.098-2.098 6.412-1.463 9.313-1.625l2.341-.156 2.272-.133L43 30.962C52.45 31.14 61.261 36.88 68 43c4.021 4.309 7.244 9.155 10.547 14.023L80 59h1l.25-2.125c1.291-4.95 3.452-8.037 7.75-10.813 3.098-1.097 4.083-1.423 7-.062 1.343.986 2.678 1.985 4 3l1.469-1.906C107.307 39.639 113.393 32.705 121 27l-1.563-3.188c-1.434-3.297-1.602-5.318-.437-8.812 1.625-.688 1.625-.688 4-1 3.25 1.438 3.25 1.438 6 3l.688-2.25c2.516-5.273 6.477-6.934 11.75-8.875C143.29 5.245 145.143 4.62 147 4l3.438-1.313c2.676-.717 4.003-.671 6.562.313Zm-13 10 1 2Zm-2 3-2 3 2 1 1-4h-1Zm-6 5-4 3c.7 3.147 1.76 6.026 3 9h-2l-1 2-5-1v5l-1.75.828C119.038 43.064 114.617 46.971 111 53l-1.625 1.5c-2.016 2.2-2.559 4.674-3.375 7.5h-3a282.832 282.832 0 0 0-5 5l-3 1-2 3c-6.981-1.782-13.85-3.807-19-9h-2l-.875-2.313C70.037 56.85 70.037 56.85 68 54h-2l1 6h-2c.775 2.992.775 2.992 2 6l3 1v2h2v2c5.95 2.46 11.51 3.755 17.875 4.625 1.685.24 3.37.481 5.055.727.734.1 1.469.202 2.226.307C99 77 99 77 101 78c2.04.07 4.083.084 6.125.063l3.32-.028L113 78v4c2.409-.113 2.409-.113 5-1 1.844-2.461 1.844-2.461 3-5-1.113-1.617-1.113-1.617-3-3-2.972-.363-2.972-.363-6.188-.188l-3.292.083L106 73l-1-5c1.392-.03 1.392-.03 2.813-.063 5.866-.833 10.466-4.585 15.187-7.937l2.016-1.375C131.276 53.888 135.543 46.372 138 39h4l1 2v-3l2.5-.625c4.646-1.825 10.186-4.746 12.5-9.375l-2.125.938C152.75 30.091 150.346 30.93 147 31c-2.625-2.313-2.625-2.313-5-5a177.118 177.118 0 0 0-4-2l-2-3Zm59 8-.918 1.715c-3.465 6.065-3.465 6.065-6.894 7.285H185c-.81 2.915-1.218 4.461-.063 7.313L186 47l1.75-.875L194 43c1.47 4.303 2.774 8.623 4 13l7 1c.688 1.688.688 1.688 1 4-1.313 2.75-1.313 2.75-3 5h-2l2 6 6 1 1-3h6l-1-2-2-.438-2-.562-1-3 2-1-2-5 8 1c1 3 1 3 0 6h5v-6h6l-1-3-2-1v-3l4-2-4-2c.547-3.375 1.055-5.082 3-8l-2.813-.438C223 39 223 39 220 38l1-4-7-1v-3c-5.893-.682-11.137-1.203-17 0l-2-1ZM48 39l1.207 1.574c2.342 3.083 4.59 6.078 6.543 9.426L57 52h2c.765-3.355.765-3.355 1-7-2.074-2.838-4.39-3.684-7.688-4.688-.808-.25-1.616-.502-2.449-.761L48 39Zm98 3v2l2-1-2-1Zm45 9v5h3l-2-5h-1ZM88 57l1 2Zm-1 3 1 3Zm110 1 2 3v-2l2-1h-4Zm-20 3c.291 6.42 1.452 10.621 5 16 1.432-2.865.579-4.914 0-8v-2l2-1c-1.21-2.573-1.21-2.573-3-5h-4Zm-24 6c2.788 1.033 3.868 1.045 6.75.063L162 69v-2c-3.304 0-6.021 1.676-9 3ZM8 70l-4 2h5l-1-2Zm142 2-1 2h3v-2h-2Zm36 0c2.199 7.37 2.199 7.37 6 14h2v6l-2 1c-.22 2.333-.22 2.333 2.313 4.625 2.464 2.706 2.464 2.706 5.687 2.375v-4l4-1-2.047-2.055c-5.054-5.273-8.953-9.787-11.039-16.949-1.161-2.536-2.361-3.024-4.914-3.996Zm-38 2v3Zm15 1c-1.46 1.602-2.918 3.207-4.375 4.813l-2.46 2.707c-3.269 3.427-3.269 3.427-4.005 7.835.986 3.103 2.39 5.309 4.278 7.957l1.87 2.676L160 103h2l2 4c6.287-1.768 11.445-6.668 15-12-1.309-3.122-1.309-3.122-4-5a78.037 78.037 0 0 1-2-5h-2v-2h-2l-.438-1.813c-.45-1.749-.99-3.474-1.562-5.187-2.015-.733-2.015-.733-4-1Zm-31 2c-.955 2.734-.955 2.734-1.688 5.938l-.824 3.277c-.763 2.73-.763 2.73.512 4.785 1.46-2.647 2-3.894 2-7h2l.313-1.813c.776-2.47 1.758-3.51 3.687-5.187-3.05-1.011-3.05-1.011-6 0Zm14 0 1 2Zm-1 2 1 2Zm-24.375 6.438C118 87 118 87 115 88c1.502 4.206 4.286 5.739 8 8l1-12c-1.32-.086-1.32-.086-3.375 1.438ZM205 97l2 3h2l.75 1.734c1.443 2.616 3.132 4.414 5.25 6.516l2.125 2.14c1.716 1.827 1.716 1.827 3.875 1.61l.625 2.375c1.549 4.084 3.623 7.513 5.918 11.215C229 128 229 128 230.75 131.562c1.012 2.565 1.012 2.565 3.25 3.438 1.125 2.063 1.125 2.063 2 4h2l1 7c2.968-4.452 3.38-8.466 2.602-13.652-4.067-17.054-17.204-24.773-31.258-33.442-2.992-2.071-2.992-2.071-5.344-1.906Zm-70 1-2 1 1 5 5 1-1-4h-2l-1-3Zm48 1 1 2Zm-2 3-4 4 4-1v-3Zm9 0-1.875 2.938C186 108 186 108 184 109l.625 3.625c.484 3.955.193 6.74-1.625 10.375-9.266 5.357-19.599 5.985-30 7v3l2.371.988 3.066 1.325 3.06 1.3C164 138 164 138 165 141c3.769 2.274 3.769 2.274 8 3l-1 5-4 1c-.934 3.01-1.044 3.867 0 7l2.438.75C173 159 173 159 174.313 162.188c.668 3.704.84 7.057.687 10.812l-2 1v6c11.519-1.221 11.519-1.221 22.938-3.125 10.118-1.887 18.458-.766 28.062 3.125 2.383 1.637 2.383 1.637 4 3l2-1-1.426-1.652-1.887-2.286-1.863-2.214c-4.656-7.27-5.378-15.175-6.199-23.598-2.21-19.284-9.439-32.036-23.625-45.25a519.67 519.67 0 0 1-2.938-2.938L190 102Zm-48 10c-.333 4.245-.439 6.355 2 9.938l2 2.062c2-.791 2-.791 4-2l1-3-2-2c-.707-1.65-1.38-3.316-2-5h-5Zm21 5c-1.465 1.954-2.733 3.905-4 6 10.728-.397 10.728-.397 20-5 .04-2 .043-4 0-6-7.023-.625-10.98-.5-16 5Zm58 14 4 25c3.323-4.984 3.51-9.186 3-15-.656-3.155-1.338-6.222-3-9l-4-1Zm-14 51-2 2 4-1-2-1Zm-14.938.938c-6.015.944-11.993 1.577-18.062 2.062l-1 12-4-1-1-10-5 1 .438 1.758c1.07 4.509 1.801 8.573 1.562 13.242h-4l-.148-1.863-.227-2.45c-.07-.8-.14-1.6-.21-2.425-.31-2.534-.31-2.534-2.415-5.262-2.592 3.888-2.382 8.058-2.375 12.563l-.004 2.42c.117 6.57 1.456 12.094 4.379 18.017l2-1v-2l4-1h-4v-14c13.857-4.286 13.857-4.286 20-6-1.59-4.035-3.282-8.018-5-12 3.044-.082 5.072.024 8 1l1 2 7-1 1-3 5-1 1-3c-2.708 0-5.264.502-7.938.938ZM221 186l2 11h7c-.866-4.096-1.462-6.475-4.5-9.438-2.291-1.739-2.291-1.739-4.5-1.562Zm-70 5 1 2Zm43 0c-2.095 3.447-2.095 3.447-4 7 4.22-.48 6.797-1.166 10-4h-3v-2l-3-1Zm-44 3 1 2Zm-1 2-1 7 2 1v-8h-1Zm39 1v2l2-1-2-1Zm16 2-7 3 2.063 3.125c1.617 2.823 1.942 3.742 1.812 7.125C200 215 200 215 198 218c4.65.27 4.65.27 9-1v-2l2.188-.688c3.344-1.56 5.328-3.615 7.812-6.312-2.154-1.117-4.187-2.06-6.5-2.813-3.119-1.48-4.522-3.403-6.5-6.187Zm-56 10 1 6h1v-6h-2Zm25 3-2 11c2.646-2.229 2.646-2.229 5-5-.088-3.067-.814-3.814-3-6Zm-6 1 1 2Zm-17 3 1 3Zm1 3 1 2Z" fill="#16A34A"/><path d="M202.813 33.688 205 34c1.802 3.83 2.196 6.781 2 11-4.75-.75-4.75-.75-7-3l-4 2c-.813-2.188-.813-2.188-1-5 2.41-3.189 3.762-4.862 7.813-5.313ZM219 46c-.75 6.75-.75 6.75-3 9h-3l-1-2a78.037 78.037 0 0 0-5-2c.625-1.938.625-1.938 2-4 3.455-.901 6.42-1 10-1Z" fill="#16A34A"/></svg>